<?xml version="1.0" encoding="UTF-8"?>
<svg width="55px" height="81px" viewBox="0 0 55 81" version="1.1" xmlns="http://www.w3.org/2000/svg" xmlns:xlink="http://www.w3.org/1999/xlink">
    <!-- Generator: Sketch 64 (93537) - https://sketch.com -->
    <title>Group 11</title>
    <desc>Created with Sketch.</desc>
    <defs>
        <path d="M38.3775917,0 C39.2074694,3.15418 39.2074694,6.46440621 38.3775917,9.61830198 C35.6782506,19.8764219 25.0394668,26.0389682 14.6150128,23.3827717 C4.19055871,20.7265753 -2.0720861,10.2578356 0.627255063,0 C3.82371405,2.02632687 7.33675709,3.52226715 11.0260011,4.42841529 L11.0260011,4.42841529 L11.0260011,4.83203208 C11.0239791,4.93492594 11.0239791,5.03753556 11.0260011,5.14014519 C11.1123685,9.74990379 14.9801243,13.4177004 19.6647594,13.3327135 C24.3493945,13.2477265 28.0767672,9.44179069 27.9903998,4.83203208 L27.9903998,4.83203208 L27.9903998,4.42841529 C31.6755999,3.5211302 35.184599,2.02518992 38.3775917,0 Z" id="path-1"></path>
        <path d="M9,0 C13.9704969,0 18,4.02950311 18,9 C18,13.9704969 13.9704969,18 9,18 C4.02950311,18 0,13.9704969 0,9 C0,4.02950311 4.02950311,0 9,0" id="path-3"></path>
        <path d="M0.739423767,21.1932866 C4.22296451,6.41361331 19.0296112,-2.74380358 33.810682,0.739339317 C31.8105379,4.0356258 31.1842214,7.98518321 32.0668772,11.738585 C29.0059185,10.8499273 25.75256,10.872013 22.7040986,11.8013548 C14.033901,14.4446609 9.14863184,23.6154455 11.7925306,32.2846528 C14.4361387,40.9535695 23.6079707,45.8382807 32.2778776,43.1949746 C40.9477845,40.5513778 45.8330537,31.3805933 43.1894456,22.7116765 C44.2392161,22.9432855 45.3113654,23.0592353 46.3864211,23.0574917 C48.3537236,23.0592353 50.3009723,22.6637274 52.1119136,21.8950879 C52.8277454,21.5946065 53.5188734,21.2380392 54.1783223,20.8285824 C55.2432057,25.0855956 55.2734317,29.5355679 54.266675,33.8068205 C50.7834249,48.5862032 35.9767783,57.7436201 21.1957074,54.2607678 C6.4143459,50.7773343 -2.74411698,35.9726693 0.739423767,21.1932866 Z" id="path-5"></path>
    </defs>
    <g id="Page-1" stroke="none" stroke-width="1" fill="none" fill-rule="evenodd">
        <g id="Products" transform="translate(-518.000000, -275.000000)">
            <g id="Group-10" transform="translate(0.000000, 90.000000)">
                <g id="Group-9" transform="translate(0.000000, 60.000000)">
                    <g id="Group-11" transform="translate(518.000000, 125.000000)">
                        <g id="Group-9" transform="translate(7.000000, 57.000000)">
                            <mask id="mask-2" fill="white">
                                <use xlink:href="#path-1"></use>
                            </mask>
                            <use id="Clip-8" fill="#FFFFFF" xlink:href="#path-1"></use>
                            <polygon id="Fill-7" mask="url(#mask-2)" points="-8 24 333 24 333 -55 -8 -55"></polygon>
                        </g>
                        <g id="Group-12" transform="translate(37.000000, 0.000000)">
                            <mask id="mask-4" fill="white">
                                <use xlink:href="#path-3"></use>
                            </mask>
                            <use id="Clip-11" fill="#FFFFFF" xlink:href="#path-3"></use>
                            <path d="M9,0 C13.9704969,0 18,4.02950311 18,9 C18,13.9704969 13.9704969,18 9,18 C4.02950311,18 0,13.9704969 0,9 C0,4.02950311 4.02950311,0 9,0" id="Fill-10" mask="url(#mask-4)"></path>
                        </g>
                        <g id="Group-15">
                            <mask id="mask-6" fill="white">
                                <use xlink:href="#path-5"></use>
                            </mask>
                            <use id="Clip-14" fill="#FFFFFF" xlink:href="#path-5"></use>
                            <polygon id="Fill-13" mask="url(#mask-6)" points="0 81 344 81 344 0 0 0"></polygon>
                        </g>
                    </g>
                </g>
            </g>
        </g>
    </g>
</svg>