<?xml version="1.0" encoding="UTF-8"?>
<svg width="156px" height="37px" viewBox="0 0 156 37" version="1.1" xmlns="http://www.w3.org/2000/svg" xmlns:xlink="http://www.w3.org/1999/xlink">
    <!-- Generator: sketchtool 64 (101010) - https://sketch.com -->
    <title>B235A1A0-BE86-434F-B25C-27C017BF309B</title>
    <desc>Created with sketchtool.</desc>
    <defs>
        <path d="M17.7040588,0.0729882353 C18.0843088,1.50907059 18.0843088,3.0162 17.7040588,4.45215294 C16.4672206,9.12262353 11.5925294,11.9284 6.81604412,10.7190471 C2.03955882,9.50969412 -0.829985294,4.74332941 0.406852941,0.0729882353 C1.87147059,0.995564706 3.48114706,1.67665882 5.17155882,2.08922353 L5.17155882,2.08922353 L5.17155882,2.27298824 C5.17063235,2.31983529 5.17063235,2.36655294 5.17155882,2.41327059 C5.21113235,4.51207059 6.98333824,6.182 9.12983824,6.14330588 C11.2763382,6.10461176 12.9842206,4.37178824 12.9446471,2.27298824 L12.9446471,2.27298824 L12.9446471,2.08922353 C14.6332059,1.67614118 16.2410294,0.995047059 17.7040588,0.0729882353 Z" id="path-1"></path>
        <path d="M4.01410169,0.118508475 C6.18427119,0.118508475 7.94359322,1.87783051 7.94359322,4.048 C7.94359322,6.21816949 6.18427119,7.97749153 4.01410169,7.97749153 C1.8439322,7.97749153 0.0846101695,6.21816949 0.0846101695,4.048 C0.0846101695,1.87783051 1.8439322,0.118508475 4.01410169,0.118508475" id="path-3"></path>
        <path d="M0.334736842,9.61302632 C1.91184211,2.92105263 8.61526316,-1.22526316 15.3071053,0.351842105 C14.4015789,1.84434211 14.1180263,3.63263158 14.5176316,5.33210526 C13.1318421,4.92973684 11.6589474,4.93973684 10.2788158,5.36052632 C6.35355263,6.55736842 4.14184211,10.7097368 5.33881579,14.635 C6.53565789,18.5601316 10.6880263,20.7718421 14.6131579,19.575 C18.5382895,18.3780263 20.75,14.2256579 19.5531579,10.3005263 C20.0284211,10.4053947 20.5138158,10.4578947 21.0005263,10.4571053 C21.8911842,10.4578947 22.7727632,10.2788158 23.5926316,9.93078947 C23.9167105,9.79473684 24.2296053,9.63328947 24.5281579,9.44789474 C25.0102632,11.3753947 25.0239474,13.3902632 24.5681579,15.3242105 C22.9911842,22.0160526 16.2877632,26.1623684 9.59592105,24.5853947 C2.90394737,23.0081579 -1.24236842,16.3048684 0.334736842,9.61302632 Z" id="path-5"></path>
    </defs>
    <g id="Page-1" stroke="none" stroke-width="1" fill="none" fill-rule="evenodd">
        <g id="Home" transform="translate(-63.000000, -27.000000)">
            <g id="elements/header-founders-copy">
                <g id="hero-image">
                    <g id="Group-4">
                        <g id="Galaxy-logo" transform="translate(63.000000, 27.000000)">
                            <path d="M43.0015623,13.5596357 C42.9894929,12.8740772 43.1088725,12.1936208 43.3516945,11.5644537 C43.5684657,11.0143689 43.8874087,10.5225552 44.2873719,10.1224447 C44.6612844,9.75482635 45.0933929,9.46978118 45.5612316,9.28194406 C46.9856601,8.70567751 48.5754753,9.02590019 49.7329429,10.1224447 C50.1208368,10.529537 50.4310563,11.0210821 50.6447205,11.567139 C50.8875426,12.1963061 51.0069221,12.8767625 50.9948527,13.562321 L50.9948527,14.5021779 L48.610847,14.5021779 L48.610847,13.562321 C48.610847,12.9151623 48.4514353,12.4381178 48.1328508,12.1310532 C47.4748892,11.5163867 46.5203309,11.5163867 45.8623692,12.1310532 C45.5436653,12.437178 45.3843731,12.9142225 45.3843731,13.562321 L45.3843731,23.4348465 C45.3843731,24.0829449 45.5436653,24.5599894 45.8623692,24.8661143 C46.5203309,25.4807807 47.4748892,25.4807807 48.1328508,24.8661143 C48.4514353,24.5599894 48.610847,24.0829449 48.610847,23.4348465 L48.610847,19.914411 L46.7215673,19.914411 L46.7215673,17.5513422 L50.9984377,17.5513422 L50.9984377,23.4335038 C51.015287,24.1281923 50.8956685,24.8185844 50.6483055,25.4555388 C50.4344022,25.9861552 50.1238242,26.4606486 49.7365279,26.8478697 C49.355326,27.2258264 48.913777,27.518659 48.4351834,27.7111954 C47.5073929,28.0962682 46.4877076,28.0962682 45.5600366,27.7111954 C45.0880155,27.52121 44.654951,27.2267663 44.2861769,26.8451844 C43.8874087,26.463871 43.5683462,25.9884377 43.3516945,25.4528535 C43.1043315,24.8158991 42.984713,24.125507 43.0015623,23.4308185 L43.0015623,13.5596357" id="Fill-1" fill="#FFFFFF"></path>
                            <path d="M69.2530136,21.7043953 L68.0120543,15.1812698 L67.9624413,15.1812698 L66.7228778,21.7043953 L69.2530136,21.7043953 Z M63,28 L66.9461997,10 L69.0550692,10 L73,28 L70.4698642,28 L69.7250349,24.1321459 L66.276234,24.1321459 L65.5314046,28 L63,28 L63,28 Z" id="Fill-2" fill="#FFFFFF"></path>
                            <polyline id="Fill-3" fill="#FFFFFF" points="85 28 85 10 87.6845195 10 87.6845195 25.4147217 93 25.4147217 93 28 85 28"></polyline>
                            <path d="M110.252268,21.7043953 L109.011355,15.1812698 L108.962003,15.1812698 L107.72109,21.7043953 L110.252268,21.7043953 Z M104,28 L107.945776,10 L110.05562,10 L114,28 L111.468822,28 L110.724096,24.1321459 L107.275904,24.1321459 L106.531051,28 L104,28 L104,28 Z" id="Fill-4" fill="#FFFFFF"></path>
                            <polyline id="Fill-5" fill="#FFFFFF" points="125 28 128.665296 18.5671213 125.282346 10 128.02761 10 129.987249 15.3366834 131.970959 10.0051687 134.718955 10.0051687 131.257937 18.57229 135 28 132.252004 28 129.987249 21.9345298 127.747996 28 125 28"></polyline>
                            <polyline id="Fill-6" fill="#FFFFFF" points="149.666801 28 149.666801 20.3902334 146 10 148.828445 10 150.971207 17.1547576 151.023436 17.1547576 153.166198 10 156 10 152.333199 20.3902334 152.333199 28 149.666801 28"></polyline>
                            <g id="Group-9" transform="translate(3.000000, 26.000000)">
                                <mask id="mask-2" fill="white">
                                    <use xlink:href="#path-1"></use>
                                </mask>
                                <use id="Clip-8" fill="#FFFFFF" xlink:href="#path-1"></use>
                                <polygon id="Fill-7" mask="url(#mask-2)" points="-3.44117647 10.9922353 153.767647 10.9922353 153.767647 -25.3810118 -3.44117647 -25.3810118"></polygon>
                            </g>
                            <g id="Group-12" transform="translate(17.000000, 0.000000)">
                                <mask id="mask-4" fill="white">
                                    <use xlink:href="#path-3"></use>
                                </mask>
                                <use id="Clip-11" fill="#FFFFFF" xlink:href="#path-3"></use>
                                <path d="M4.01410169,0.118508475 C6.18427119,0.118508475 7.94359322,1.87783051 7.94359322,4.048 C7.94359322,6.21816949 6.18427119,7.97749153 4.01410169,7.97749153 C1.8439322,7.97749153 0.0846101695,6.21816949 0.0846101695,4.048 C0.0846101695,1.87783051 1.8439322,0.118508475 4.01410169,0.118508475" id="Fill-10" mask="url(#mask-4)"></path>
                            </g>
                            <g id="Group-15">
                                <mask id="mask-6" fill="white">
                                    <use xlink:href="#path-5"></use>
                                </mask>
                                <use id="Clip-14" fill="#FFFFFF" xlink:href="#path-5"></use>
                                
                            </g>
                        </g>
                    </g>
                </g>
            </g>
        </g>
    </g>
</svg>